<?xml version="1.0" encoding="UTF-8" standalone="no"?>
<svg
   width="15cm"
   height="15cm"
   viewBox="0 0 566.92914 566.92914"
   version="1.1"
   id="svg3"
   sodipodi:docname="lories-logo.svg"
   inkscape:version="1.1 (c68e22c387, 2021-05-23)"
   inkscape:export-filename="lories-logo.png"
   inkscape:export-xdpi="120.042"
   inkscape:export-ydpi="120.042"
   xmlns:inkscape="http://www.inkscape.org/namespaces/inkscape"
   xmlns:sodipodi="http://sodipodi.sourceforge.net/DTD/sodipodi-0.dtd"
   xmlns:xlink="http://www.w3.org/1999/xlink"
   xmlns="http://www.w3.org/2000/svg"
   xmlns:svg="http://www.w3.org/2000/svg">
  <defs
     id="defs7">
    <linearGradient
       inkscape:collect="always"
       id="linearGradient10727">
      <stop
         style="stop-color:#032a49;stop-opacity:1;"
         offset="0"
         id="stop10723" />
      <stop
         style="stop-color:#004f9f;stop-opacity:1"
         offset="1"
         id="stop10725" />
    </linearGradient>
    <linearGradient
       inkscape:collect="always"
       id="linearGradient5338">
      <stop
         style="stop-color:#004f9f;stop-opacity:1"
         offset="0"
         id="stop5334" />
      <stop
         style="stop-color:#92e8e5;stop-opacity:1"
         offset="1"
         id="stop5336" />
    </linearGradient>
    <linearGradient
       inkscape:collect="always"
       id="linearGradient980">
      <stop
         style="stop-color:#e89400;stop-opacity:1"
         offset="0"
         id="stop976" />
      <stop
         style="stop-color:#ffb800;stop-opacity:1"
         offset="1"
         id="stop978" />
    </linearGradient>
    <radialGradient
       inkscape:collect="always"
       xlink:href="#linearGradient980"
       id="radialGradient982"
       cx="192.63216"
       cy="395.00024"
       fx="192.63216"
       fy="395.00024"
       r="127.12219"
       gradientTransform="matrix(-3.1664199,0.83986089,0.37078567,1.3979257,936.65504,-284.90737)"
       gradientUnits="userSpaceOnUse" />
    <linearGradient
       inkscape:collect="always"
       xlink:href="#linearGradient5338"
       id="linearGradient10503"
       x1="144.2332"
       y1="428.79782"
       x2="391.82635"
       y2="-80.806564"
       gradientUnits="userSpaceOnUse"
       gradientTransform="translate(153.54895,-9.906384)" />
    <linearGradient
       inkscape:collect="always"
       xlink:href="#linearGradient10727"
       id="linearGradient10729"
       x1="249.80707"
       y1="509.56104"
       x2="436.64307"
       y2="133.18494"
       gradientUnits="userSpaceOnUse" />
    <linearGradient
       inkscape:collect="always"
       xlink:href="#linearGradient10727"
       id="linearGradient14635"
       x1="184.8152"
       y1="142.15498"
       x2="350.44208"
       y2="255.65498"
       gradientUnits="userSpaceOnUse" />
    <linearGradient
       inkscape:collect="always"
       xlink:href="#linearGradient10727"
       id="linearGradient15050"
       x1="249.93872"
       y1="324.48962"
       x2="319.24359"
       y2="178.82564"
       gradientUnits="userSpaceOnUse" />
  </defs>
  <sodipodi:namedview
     id="namedview5"
     pagecolor="#505050"
     bordercolor="#eeeeee"
     borderopacity="1"
     inkscape:pageshadow="0"
     inkscape:pageopacity="0"
     inkscape:pagecheckerboard="0"
     inkscape:document-units="cm"
     showgrid="false"
     units="cm"
     inkscape:zoom="1.4142136"
     inkscape:cx="232.28458"
     inkscape:cy="266.2257"
     inkscape:window-width="2400"
     inkscape:window-height="1271"
     inkscape:window-x="2391"
     inkscape:window-y="-9"
     inkscape:window-maximized="1"
     inkscape:current-layer="g15758"
     showguides="false"
     inkscape:guide-bbox="true">
    <sodipodi:guide
       position="288.49957,305.1781"
       orientation="1,0"
       id="guide15840" />
    <sodipodi:guide
       position="-168.46819,287.6772"
       orientation="0,-1"
       id="guide15842" />
  </sodipodi:namedview>
  <g
     id="g15758"
     transform="matrix(1.0811239,0,0,1.0811239,-126.98333,-22.19284)">
    <g
       id="g15988"
       transform="matrix(0.98605265,0,0,0.98605265,0.80023337,0.0952757)">
      <path
         id="Sun"
         fill="none"
         stroke="#000000"
         stroke-width="1"
         d="m 530.79333,197.09362 c -5.22,-14.95 -13.36,-27.55 -22.99,-40 -20.68,-26.74 -46.83,-46.56 -79.01,-57.320004 -22.18,-7.42 -39.95,-8.72 -63,-8.68 -20.9,0.03 -42.64,6.3 -62,13.680004 -4.02,1.54 -19.05,9.23 -20.77,12.65 -1.6,3.17 1.2,6.16 3.17,8.39 5.22,5.89 10.66,11.54 16.6,16.7 l 22,20.41 37.91,31.02 15.09,12.27 c 1.78,1.34 4.74,3.78 7,3.89 3.61,0.18 12.68,-9.12 16,-11.72 9.04,-7.08 23,-13.86 34,-17.27 21.24,-6.57 49.34,-5.91 70,2.43 z m -78.35447,50.06225 c -7.00299,2.89492 -17.75553,11.67775 -22.12553,17.93775 -12.41,17.73 -8.64,45.52 -19.89,68 -13.35,26.69 -38.56,43.5 -66.63,51.44 -6.56,1.86 -13.27,2.45 -20,3.28 -2.74,0.33 -4.5707,0.65757 -7.43474,0.6486 -1.71668,2.19186 -7.22603,11.01859 -9.58848,16.24519 3.56862,0.80489 7.90322,1.41621 10.02322,1.37621 8.96766,0.10658 10.05239,-0.41085 18,-1.03 40.21,-3.97 79.91,-18.79 110,-46.13 12.04,-10.94 20.43,-25.07 30.23,-37.83 4.62,-6.01 11.71,-13.58 17.77,-18.08 2.61,-1.93 11.76,-7.21 13.15,-9.19 1.68,-3.01 0.42,-7.46 0,-10.73 -0.18,-4.69 2.57518,-15.39324 3.59518,-20.31324 0.4,-2.58 1.30814,-4.82493 1.99455,-8.25433 -3.5403,-1.19112 -9.10143,-3.40147 -14.20979,-4.88161 l -5.52543,6.47522 c -5.21,4.56 -11.13451,7.28396 -18.00451,6.93396 -13.53,-0.69 -19.41774,-12.4582 -21.35447,-15.89775 z m 84.35447,64.93775 c -10.41,-1.06 -22.89,5.16 -30.99,11.27 -8.64,6.53 -16.29,17.96 -22.74,26.73 -7.34,9.96 -15.21,19.47 -24.27,27.91 -33.92,31.59 -86.85276,48.83407 -132.77276,50.94407 11.58901,4.80041 24.12374,6.71997 28.77276,7.71593 10.29,1.48 20.62,1.45 31,1.43 14.55,-0.02 30.24,-3.41 44,-8 53.25,-17.75 96.79,-61.92 107,-118 z"
         style="fill:url(#radialGradient982);fill-opacity:1;stroke:none"
         sodipodi:nodetypes="ccccccccccccccccccccccccccccccccccccccccccccc" />
      <path
         id="Body"
         fill="none"
         stroke="#000000"
         stroke-width="1"
         d="m 532.53306,232.52605 c -4.87,-6.8 -10.33,-11 -17,-15.85 -5.27,-3.82 -11.01,-7.7 -17,-10.28 -25.32,-10.88 -56.14,-6.37 -79,8.18 -10.89,6.93 -16.61,12.97 -24.6,22.95 -1.94,2.43 -5.86,8.76 -9.41,7.8 -1.8,-0.48 -10.7,-9.11 -12.99,-11.07 l -31,-25.98 c -43.53,-36.27 -86.08,-74.42 -119.29,-120.750004 l -23.7,-36 -9.82,-18 c -3.85,-6.15 -10.03,-13.71 -18.19,-12.63 -17,2.23 -17.02,27.99 -17,40.63 0.05,30.64 20.45,65.940004 43,85.710004 15.72,13.79 23.04,15.87 39,26.29 -24.22,-3.73 -45.81,-17.04 -63,-34.01 l -14.61,-16.99 c -3.31,-3.95 -6.73,-7.61 -12.39,-6.76 -9.36,1.42 -10.63,14.25 -9.83,21.76 1.96,18.3 17.15,38.8 30.83,50.25 14.33,11.99 35.02,22.99 53,28.31 l 17,3.86 18,4.22 19,4.11 c 19.16,6.13 35.08,15.61 52,26.2 11.61,7.27 27.3,17.56 37,27.05 -8.16,2.58 -31.15,18.27 -39,23.86 -28.49,20.29 -30.76,18.9 -57,45.14 -6.42,6.42 -16.57269,17.01869 -25.63382,26.37397 18.20959,11.30288 41.05382,11.60603 55.63382,11.62603 h 20 c 31.08,-0.05 63.98,-14.43 83.33,-39 4.64,-5.89 9.53915,-13.39277 12.22915,-20.41277 8.86553,-21.12319 7.87553,-40.21553 13.75447,-55.83297 3,-5.5 9.16683,-13.34247 13.95683,-17.35247 2.92,-2.44 10.19255,-7.3326 12.63535,-8.77197 -1.2007,-6.21536 0.36969,-11.98044 2.57492,-16.55343 2.89433,-4.50717 11.39928,-12.73639 21.51928,-11.88639 9.88,0.83 18.7,9.17 20.7,18.77 1.17,5.6 0.86704,8.6874 0.0902,12.15839 1.90264,0.79626 11.51105,3.9709 14.20979,4.88161 3.4,-7.61 12.2,-21.14 21,-22 z m -297,-59 h 1 l -1,1 z"
         sodipodi:nodetypes="cccccccccccccccccccccccccccsccccccccccccccccccc"
         style="fill:url(#linearGradient10503);fill-opacity:1;stroke:none" />
      <circle
         style="fill:#ffffff;fill-opacity:1;stroke:none;stroke-width:1.08293"
         id="path9864"
         cx="475.14526"
         cy="241.72609"
         r="23.57926" />
      <path
         id="Beak"
         fill="none"
         stroke="#000000"
         stroke-width="1"
         d="m 545.18333,294.09362 c 6.65,-15.65 5.03,-35.38 -3.63,-50 -1.77,-3 -7.47165,-10.75691 -9.93065,-12.8 -3.22539,1.70473 -9.27582,5.39273 -14.39935,12.12835 -2.66154,3.22858 -5.19,7.24165 -6.29,9.67165 -2.79,6.17 -5.67,23.18 -4.99,30 v 11 c 12.93,-1.96 21.15,-9.01 31.24,-16 l 5.32,10 z"
         style="fill:#032a49;fill-opacity:1;stroke:none"
         sodipodi:nodetypes="cccccccccc" />
      <circle
         style="fill:#032a49;fill-opacity:1;stroke:none"
         id="path10576"
         cx="475.48114"
         cy="241.14458"
         r="15.323156" />
      <path
         id="Feathers Tail"
         fill="none"
         stroke="#000000"
         stroke-width="1"
         d="m 240.89924,376.90002 c -9.80594,9.40089 -22.89065,23.4622 -31.58065,32.5622 -24.5,25.66 -53.88,62.73 -74.24,92 -5.04,7.25 -16.03,24.47 -16.62,33 -0.64,9.11 2.68,15.17 11.9,17.18 4.46,0.97 8.47,0.87 13,0.82 15.39,-0.18 34.62,-8.39 48,-15.7 34.98,-19.08 70.4,-54.37 91.19,-88.3 l 19.55,-35 c 5.26436,-9.45479 8.06872,-16.17499 14.26,-24.94531 -22.01,0 -33.9,0.43531 -56,-4.26469 -4.87,-1.04 -11.97899,-3.90045 -19.45935,-7.3522 z"
         style="fill:url(#linearGradient10729);fill-opacity:1;stroke:none"
         sodipodi:nodetypes="cccccccccccc" />
      <path
         id="Feathers Middle"
         fill="none"
         stroke="#000000"
         stroke-width="1"
         d="m 362.53306,281.52605 c -12.24762,-11.56829 -22.67099,-18.13934 -33.59099,-24.98934 -19.98,-12.53 -43.62,-26.63 -67,-31.15 -20.46,-3.95 -33.69,0.63 -57,-5.17 -10.17,-2.53 -19.95,-6.35 -29,-11.64 -6.04,-3.53 -16.13,-10.72 -23,-10.85 -12.26,-0.25 -10.29,13.18 -7.64,20.86 7.53,21.83 39.35,36.65 60.64,41 7.64,1.56 24.44,3.91 32,4 17.05,0.19 33.94,-7.57 51,-6.49 l 12,1.16 c 17.45,3.7 37.31,16.2 48,30.33 z"
         style="fill:url(#linearGradient14635);fill-opacity:1;stroke:none"
         sodipodi:nodetypes="ccccccccccccc" />
      <path
         id="Feathers Bottom"
         fill="none"
         stroke="#000000"
         stroke-width="1"
         d="m 348.94207,288.58671 c -8.75,-12.22 -26.52,-24.28 -41,-28.56 -8.6604,-2.72591 -17.81714,-3.29171 -25.67938,-2.95064 -6.51811,0.28277 -10.13988,0.88072 -15.13863,1.79417 -4.35487,0.79579 -13.68459,3.55581 -13.68459,3.55581 l -20.4974,5.88066 c -10,1.24 -17.99,1.2 -28,0 l -13,-1.68 c -2.03,-0.08 -5.07,-0.03 -7,0.53 -12.6,3.67 -3.95,17.88 3,22.47 13.21,8.71 34.46,11.14 50,10.96 l 21,-2.21 c 6.32,-1.33 11.58,-3.56 18,-1.79 -7.01,1.27 -13.3,4.97 -20,7.31 -7.42,2.58 -12.48,3.06 -20,4.28 -4.43,0.72 -10.53,1.48 -12.22,6.45 -2.18,6.41 6.24,11.55 11.22,13.21 12.76,4.25 29.83,4.47 43,2.14 17.12,-3.04 23.2,-9.2 37,-18.97 z"
         style="fill:url(#linearGradient15050);fill-opacity:1;stroke:none"
         sodipodi:nodetypes="ccsscccccccccccccccc" />
    </g>
  </g>
</svg>
