<?xml version="1.0" encoding="UTF-8" standalone="no"?>
<svg
   width="11.8125in"
   height="11.8125in"
   viewBox="0 0 1512 1512"
   version="1.1"
   id="svg3"
   sodipodi:docname="loris-logo.svg"
   inkscape:version="1.1 (c68e22c387, 2021-05-23)"
   inkscape:export-filename="C:\Users\am\Workspace\Python\loris\doc\_images\loris-logo.png"
   inkscape:export-xdpi="120.04233"
   inkscape:export-ydpi="120.04233"
   xmlns:inkscape="http://www.inkscape.org/namespaces/inkscape"
   xmlns:sodipodi="http://sodipodi.sourceforge.net/DTD/sodipodi-0.dtd"
   xmlns:xlink="http://www.w3.org/1999/xlink"
   xmlns="http://www.w3.org/2000/svg"
   xmlns:svg="http://www.w3.org/2000/svg">
  <defs
     id="defs7">
    <linearGradient
       inkscape:collect="always"
       id="linearGradient5983">
      <stop
         style="stop-color:#a0ffe1;stop-opacity:1"
         offset="0"
         id="stop5979" />
      <stop
         style="stop-color:#4c95e5;stop-opacity:1"
         offset="1"
         id="stop5981" />
    </linearGradient>
    <radialGradient
       inkscape:collect="always"
       xlink:href="#linearGradient5983"
       id="radialGradient5985"
       cx="6713.8301"
       cy="-5310.9805"
       fx="6713.8301"
       fy="-5310.9805"
       r="2662.4336"
       gradientTransform="matrix(-2.9774299,-0.79755179,0.59212838,-2.2055001,27338.196,-10846.824)"
       gradientUnits="userSpaceOnUse" />
    <radialGradient
       inkscape:collect="always"
       xlink:href="#linearGradient5983"
       id="radialGradient38004"
       gradientUnits="userSpaceOnUse"
       gradientTransform="matrix(-0.84545065,0.22645049,0.16813674,0.62621209,7554.4034,3418.5044)"
       cx="6713.8301"
       cy="-5310.9805"
       fx="6713.8301"
       fy="-5310.9805"
       r="2662.4336" />
  </defs>
  <sodipodi:namedview
     id="namedview5"
     pagecolor="#505050"
     bordercolor="#eeeeee"
     borderopacity="1"
     inkscape:pageshadow="0"
     inkscape:pageopacity="0"
     inkscape:pagecheckerboard="0"
     inkscape:document-units="cm"
     showgrid="false"
     inkscape:zoom="0.66740889"
     inkscape:cx="511.68033"
     inkscape:cy="613.5669"
     inkscape:window-width="2400"
     inkscape:window-height="1271"
     inkscape:window-x="2391"
     inkscape:window-y="-9"
     inkscape:window-maximized="1"
     inkscape:current-layer="svg3"
     showguides="true"
     inkscape:guide-bbox="true"
     inkscape:lockguides="true">
    <sodipodi:guide
       position="756,756.93103"
       orientation="1,0"
       id="guide23708" />
    <sodipodi:guide
       position="756,756.93103"
       orientation="0,-1"
       id="guide23710" />
    <sodipodi:guide
       position="-695.22598,1260.2802"
       orientation="0,-1"
       id="guide51644" />
    <sodipodi:guide
       position="-667.25712,251.40346"
       orientation="0,-1"
       id="guide51646" />
  </sodipodi:namedview>
  <path
     id="path14"
     style="fill:url(#radialGradient38004);fill-opacity:1;fill-rule:nonzero;stroke:none;stroke-width:3.74459"
     d="M 279.37443,0.0024918 C 126.51058,0.002778 0,121.06361 0,273.87142 0.2246949,686.12616 0,1099.2689 0,1512.0126 h 1235.2711 c 152.8154,0 276.7415,-123.8419 276.7415,-276.7211 0,-1.5053 -0.2247,-2.9337 -0.2247,-4.4428 0,-1.1234 0.2247,-2.3337 0.2247,-3.4557 V 0.1122982 C 1094.0354,0 279.37443,0 279.37443,0 Z"
     sodipodi:nodetypes="cccsssscc" />
  <path
     id="blue"
     fill="none"
     stroke="black"
     stroke-width="1.60714"
     d="m 693.24354,255.96171 c 7.6224,-14.27904 21.51639,-5.65378 33.77013,-3.38905 5.62835,0.78703 13.50807,0.46578 19.29721,0 4.74391,10.16719 15.55036,17.29868 25.72963,21.05716 0,0 -8.0405,-11.24334 -8.0405,-11.24334 3.03931,-3.32482 9.1501,-10.66511 13.33116,-11.95006 4.75999,-1.46163 10.95118,1.60619 15.61465,2.68234 0,0 18.36453,1.17252 18.36453,1.17252 8.57119,-0.89946 16.17751,-7.25998 26.66232,-3.14814 0,0 -3.2162,1.60618 -3.2162,1.60618 0,0 0,1.60621 0,1.60621 0,0 35.37824,4.35277 35.37824,4.35277 27.20909,3.38907 53.72668,5.8626 80.40513,12.88166 47.26199,12.44797 92.01576,33.16784 135.08076,55.89544 0,0 33.77,17.7163 33.77,17.7163 0,0 17.6891,7.35636 17.6891,7.35636 10.7905,6.50506 25.987,21.82813 33.7701,31.89894 0,0 -30.5538,17.66811 -30.5538,17.66811 -15.4219,-12.97802 -44.8822,-24.09287 -64.3242,-30.51763 -66.4147,-21.92451 -134.42131,-20.0774 -197.79658,10.85785 -11.43361,5.57348 -21.7737,10.27963 -32.16203,17.92509 -10.99942,8.11128 -22.51342,20.92867 -30.20015,32.25232 0,0 -8.39429,12.84954 -8.39429,12.84954 -0.64324,-0.83523 -0.57892,-1.8632 -2.47647,-2.6984 -2.23526,-0.99585 -17.81777,3.00356 -21.64505,3.64605 -10.61347,1.78286 -23.09234,3.59786 -33.77013,1.44556 -12.35024,-2.4896 -31.72786,-10.60085 -43.41875,-8.81798 -6.52888,-9.7014 -15.80763,-22.10119 -24.26625,-30.05184 -15.14832,-14.24691 -33.9631,-23.56282 -52.92263,-31.65804 -53.75882,-22.95246 -110.73386,-27.17673 -167.24256,-12.36767 -18.28412,4.80251 -41.03875,13.02622 -57.89165,21.5069 0,0 -30.55392,17.23445 -30.55392,17.23445 0,0 -30.55393,-19.27431 -30.55393,-19.27431 7.47766,-10.56874 22.91544,-27.89953 33.77013,-34.64554 0,0 17.68911,-6.746 17.68911,-6.746 0,0 35.37824,-19.54735 35.37824,-19.54735 59.86961,-31.33679 128.35865,-59.05965 196.18838,-64.47251 0,0 16.08102,-1.47769 16.08102,-1.47769 0,0 35.37823,-1.6062 35.37823,-1.6062 0,0 -1.6081,-3.21239 -1.6081,-3.21239 0,0 17.68912,3.21239 17.68912,3.21239 z m -308.7555,91.5529 c 0,0 -1.6081,0 -1.6081,0 0,0 1.6081,1.60619 1.6081,1.60619 0,0 0,-1.60619 0,-1.60619 z m -56.28355,314.81347 c 0.65932,-12.46404 18.3645,-18.72819 28.94584,-20.88049 -7.22037,12.88165 -14.68198,21.55508 -16.08103,36.9424 0,0 16.08103,0 16.08103,0 -1.68852,4.83464 -7.6385,16.7365 -6.73794,20.88049 1.01309,4.69007 8.1209,11.03452 11.56223,14.45572 12.10901,12.0625 18.36453,14.92152 27.33774,30.51763 0,0 -22.51344,-4.81857 -22.51344,-4.81857 12.06077,19.38672 27.04828,29.92333 46.63496,41.07029 0,0 12.86481,7.11543 12.86481,7.11543 0,0 -12.86481,1.6062 -12.86481,1.6062 13.3794,13.0262 20.76059,15.35519 38.59443,19.45097 8.00834,1.84713 17.1102,1.68651 24.12151,6.24808 0,0 -19.29722,6.42478 -19.29722,6.42478 18.10724,14.68059 39.20554,13.60443 61.10786,11.51638 7.44553,-0.70671 11.11199,0.38549 19.29723,-1.3492 9.68078,-2.03985 31.72785,-9.0268 40.20253,-8.56099 -14.73019,26.18091 -33.57714,48.50697 -44.35142,77.09717 -5.19419,13.81326 -6.1108,28.91143 -8.71593,43.36716 0,0 -16.08099,-3.37299 -16.08099,-3.37299 0,0 -16.08103,0 -16.08103,0 3.18405,-8.19159 8.69983,-9.86202 16.08103,-14.29511 0,0 -43.41876,1.60618 -43.41876,1.60618 0,0 17.6891,-17.6681 17.6891,-17.6681 -13.26681,-0.61035 -36.55213,-2.56989 -46.63492,-11.24333 0,0 14.4729,-8.03095 14.4729,-8.03095 -11.49792,-5.38074 -29.25137,-13.47596 -38.59442,-21.36235 -15.96847,-13.49201 -23.06019,-24.57471 -34.44555,-41.27911 -8.95711,-13.12259 -18.01072,-27.27313 -24.5557,-41.76097 -10.62956,-23.57889 -20.34249,-64.07097 -21.33951,-89.94672 -0.46635,-12.06248 2.60512,-22.4706 6.3681,-33.73 0,0 -9.64863,0 -9.64863,0 z m 841.03741,-19.2743 c 0,0 25.7295,6.42478 25.7295,6.42478 0,0 0,-4.81859 0,-4.81859 4.8404,8.38432 10.2757,14.18267 8.0406,24.09286 0,0 -14.4729,-3.21237 -14.4729,-3.21237 1.8492,10.31175 7.0111,21.52296 6.1268,32.12383 0,0 -4.0685,20.88047 -4.0685,20.88047 -6.1591,43.47961 -22.5135,90.38038 -49.626,125.28291 -7.5902,9.78172 -16.6439,22.29394 -26.4051,29.77879 -8.3782,6.42477 -22.1756,11.33972 -32.1621,15.19457 0,0 8.0406,6.42477 8.0406,6.42477 -2.3318,7.06724 -4.7921,7.48485 -11.2567,10.5848 -16.065,7.69364 -25.2632,5.2683 -41.8106,2.26474 0,0 17.689,24.09286 17.689,24.09286 0,0 -36.9864,-6.42477 -36.9864,-6.42477 0,0 9.6488,14.45571 9.6488,14.45571 0,0 -27.338,-6.42476 -27.338,-6.42476 0,0 3.2161,8.03096 3.2161,8.03096 -6.35194,1.78287 -12.23747,3.32481 -13.86166,-4.89888 0,0 -1.07751,-22.40638 -1.07751,-22.40638 -1.92971,-15.66035 -6.81825,-29.44147 -14.19945,-43.36715 -5.70882,-10.7936 -12.91312,-20.92866 -20.51942,-30.45339 -7.54205,-9.4444 -12.60751,-11.70913 -16.27399,-24.15711 26.74273,11.32364 56.29957,16.11009 85.22963,16.06191 20.053,-0.032 24.1698,-4.01547 41.8106,-8.03095 0,0 -11.2568,-12.84953 -11.2568,-12.84953 12.511,-0.11243 37.8709,-4.27248 48.1789,-10.98635 3.7145,-2.42534 5.4515,-4.89889 8.1049,-8.28795 0,0 -8.0407,-3.21238 -8.0407,-3.21238 22.0632,-9.49259 50.4462,-30.42127 64.3241,-49.79192 0,0 -19.2973,1.60619 -19.2973,1.60619 5.7249,-7.99885 18.268,-21.74783 25.7297,-28.23685 3.3609,-2.90719 11.1924,-8.75373 11.1924,-13.52412 0,-5.58955 -9.3591,-10.19932 -14.4085,-20.88049 8.6675,-2.10412 11.1279,-2.16835 19.2972,1.60618 -3.9721,-19.65978 -8.8446,-21.33021 -19.2972,-36.94239 z m -844.25361,19.2743 c 0,0 1.60809,0 1.60809,0 0,0 -1.60809,1.60619 -1.60809,1.60619 0,0 0,-1.60619 0,-1.60619 z"
     style="fill:#57a3e4;fill-opacity:1;stroke:none" />
  <path
     id="black"
     fill="none"
     stroke="black"
     stroke-width="1.60714"
     d="m 701.28405,243.11219 c 10.27577,2.07197 25.66531,4.65795 33.7701,11.24334 -7.7671,-0.43367 -28.86538,-5.50924 -33.7701,-11.24334 z m -320.01224,107.6148 c 8.55511,-16.81682 42.77552,-37.07088 59.49976,-46.65985 32.14596,-18.42301 65.35325,-36.99059 101.31042,-46.91683 16.78857,-4.62585 50.44614,-10.79362 67.54028,-10.82575 0,0 30.55391,0 30.55391,0 9.6486,0.11245 32.91785,3.80667 40.20253,9.63715 0,0 -22.51343,1.6062 -22.51343,1.6062 -25.63312,0.0321 -56.95895,3.75848 -82.01318,9.33196 -29.92675,6.66571 -60.20732,17.94116 -88.44557,29.79485 0,0 -57.89165,27.53013 -57.89165,27.53013 0,0 -48.24307,26.50214 -48.24307,26.50214 z m 395.593,-104.40243 c 8.31389,0.40156 19.20073,2.32898 24.12153,9.63715 -6.49673,-1.06008 -20.43897,-4.33671 -24.12153,-9.63715 z m 56.28357,4.81858 c 21.62896,-7.01905 45.04292,-5.07557 67.54027,-4.81858 11.14413,0.1285 22.78679,2.2808 33.77013,4.12793 51.05726,8.54492 87.83462,24.73533 131.86442,51.67115 0,0 41.8106,27.91561 41.8106,27.91561 8.523,6.26414 16.0649,10.85784 20.9054,20.68774 0,0 -61.1079,-31.69015 -61.1079,-31.69015 -32.2905,-16.12617 -65.3694,-30.54976 -99.70236,-41.72885 -24.49141,-7.98276 -53.16388,-13.41169 -78.797,-16.25466 0,0 -56.28356,-6.6978 -56.28356,-6.6978 0,0 0,-3.21239 0,-3.21239 z m -88.44557,1.60618 c 11.61045,3.1642 25.53664,10.08689 28.9458,22.48668 -9.63252,-2.37717 -25.93868,-12.8174 -28.9458,-22.48668 z M 199.55634,840.6153 c 0,-39.99415 7.31688,-51.81574 10.90294,-85.12814 1.27039,-11.91794 -16.86901,-23.01672 -25.1025,-30.18033 -8.39428,-7.32423 -23.04407,-19.9489 -29.89459,-28.1244 0,0 -24.00893,-34.85435 -24.00893,-34.85435 0,0 -14.73023,-19.2743 -14.73023,-19.2743 -12.76833,-17.53961 -21.950594,-50.78777 -25.568825,-72.27861 -5.740916,-34.06731 -7.847537,-76.05314 3.103635,-109.22099 2.749846,-8.35219 6.23944,-14.69664 9.93808,-22.48667 9.92199,-20.84836 23.4622,-40.2351 42.29307,-53.98409 12.31804,-9.01073 25.87436,-15.94947 40.20254,-21.02505 14.00655,-4.97918 25.10245,-8.33613 40.20253,-8.51281 20.64805,-0.24092 41.07092,0.53006 61.10786,6.07141 30.98814,8.57706 58.53491,24.2053 86.83749,38.90194 -5.1781,10.42419 -22.78679,20.44682 -32.09769,28.70265 -9.61647,8.51281 -17.70521,15.80493 -26.32466,25.45813 -5.37103,5.99109 -10.61345,14.21478 -17.15842,18.56756 -11.41754,7.56516 -26.16381,8.9786 -38.59446,14.05418 -21.05003,8.60918 -31.08459,20.38256 -43.41871,38.50041 8.84456,-1.02797 15.63073,-9.71747 25.72962,-11.72519 8.32996,-1.6544 8.36212,2.15229 13.28293,6.11957 4.00417,3.24451 8.92495,4.11185 10.46872,7.64547 2.02621,4.67401 -3.39308,11.8537 -5.77308,15.62824 -5.58012,8.818 -10.45266,18.43907 -11.54616,28.91144 0,0 30.55393,-30.51763 30.55393,-30.51763 0,0 -10.17928,32.12383 -10.17928,32.12383 0,0 -12.78444,38.54859 -12.78444,38.54859 0,0 -4.37401,17.6681 -4.37401,17.6681 14.02264,-3.40512 14.90712,-26.43792 28.94583,-33.73003 0,0 -27.33773,83.52194 -27.33773,83.52194 12.63967,-11.11483 23.49436,-34.46885 38.59442,-41.76096 0,0 -15.32518,48.18574 -15.32518,48.18574 -2.78201,11.17908 -3.52174,28.39746 -4.03636,40.15478 -0.45028,10.31174 -5.93386,24.41412 4.88864,30.51762 0,0 16.08101,-33.73001 16.08101,-33.73001 0,26.32548 -1.5116,68.68074 3.8916,93.15909 2.34785,10.64905 4.48662,24.07681 12.18944,32.12382 0,0 1.46337,-14.45571 1.46337,-14.45571 0.72364,-10.53662 -1.23825,-20.54319 3.36091,-30.51765 0,0 5.61227,27.30526 5.61227,27.30526 0,0 15.98454,44.97336 15.98454,44.97336 4.96904,11.59669 11.62657,24.46229 21.82195,32.12383 0,0 -3.21621,-27.30527 -3.21621,-27.30527 0,0 18.10723,25.69906 18.10723,25.69906 16.45088,22.71153 26.09949,34.77404 49.43303,51.39813 0,0 -9.64861,-25.69906 -9.64861,-25.69906 29.70163,20.59137 59.03343,54.14469 98.0942,54.61053 0,0 12.86481,0 12.86481,0 16.29009,0.0962 9.08578,3.35692 22.75464,27.30537 14.24778,24.9442 32.12988,44.4274 52.82613,64.1836 67.05786,64.0548 161.88759,86.9912 247.64765,47.752 38.07985,-17.4112 74.42295,-44.7968 99.86314,-78.2055 9.08571,-11.9341 16.33831,-25.394 23.46218,-38.5487 2.31565,-4.2565 7.81534,-16.94545 11.16021,-19.29049 2.8785,-1.99164 8.34606,-1.52591 11.85167,-1.86313 0,0 24.12162,-2.93938 24.12162,-2.93938 8.9251,-1.815 20.7606,-4.73826 28.946,-8.54495 9.343,-4.35277 15.3573,-9.87806 25.7295,-12.33554 0,0 -3.2161,12.84954 -3.2161,12.84954 0,0 14.4729,-9.82989 14.4729,-9.82989 0,0 33.7539,-30.46946 33.7539,-30.46946 0,0 16.0974,-17.52353 16.0974,-17.52353 0,0 -11.2569,30.51762 -11.2569,30.51762 17.7374,-9.12316 31.6312,-28.70263 39.7038,-46.57954 3.6346,-8.06307 6.5933,-20.9126 11.7556,-27.30524 0,0 1.6078,32.12383 1.6078,32.12383 15.1162,-11.88583 20.1495,-39.57656 23.4463,-57.82288 1.3508,-7.53305 1.5919,-15.77281 5.4996,-22.48669 0,0 6.4325,35.33621 6.4325,35.33621 0,0 3.2161,0 3.2161,0 3.4734,-13.0744 6.3681,-28.23684 6.4324,-41.76097 0.049,-9.78171 -1.4633,-35.65745 1.6083,-43.36718 0,0 16.0647,32.12383 16.0647,32.12383 0,0 0,-54.6105 0,-54.6105 0,0 -1.5921,-25.69905 -1.5921,-25.69905 0,0 17.6892,27.30524 17.6892,27.30524 0,0 -4.3741,-30.51762 -4.3741,-30.51762 0,0 -0.9004,-16.06191 -0.9004,-16.06191 -2.9108,-24.36592 -9.4879,-47.44689 -17.2388,-70.67242 0,0 28.946,32.12383 28.946,32.12383 0,0 -9.5203,-33.73002 -9.5203,-33.73002 0,0 -7.6864,-24.09287 -7.6864,-24.09287 0,0 -8.5232,-20.88049 -8.5232,-20.88049 0,0 27.3377,30.51765 27.3377,30.51765 -0.45,-20.76806 -13.0257,-58.9151 -20.9054,-78.70337 11.1765,5.2683 19.3616,16.51164 27.3378,25.69904 0.2411,-16.65618 -13.1059,-29.1363 -16.081,-44.97333 0,0 19.2975,-4.81859 19.2975,-4.81859 0,0 -6.4325,-9.63714 -6.4325,-9.63714 16.515,4.44915 22.1113,9.54077 35.378,19.27429 -5.1459,-16.09403 -29.3477,-37.1512 -45.0268,-43.49566 0,0 -30.5377,-10.80965 -30.5377,-10.80965 -8.1531,-5.17194 -11.7874,-11.11485 -17.9785,-17.97329 -8.2175,-9.1071 -20.8572,-22.06908 -30.2808,-29.77879 0,0 -32.8213,-24.18924 -32.8213,-24.18924 -1.8812,-2.18441 -1.7528,-3.00358 -2.5568,-5.46104 0,0 30.5539,-15.75674 30.5539,-15.75674 0,0 11.2568,-6.44083 11.2568,-6.44083 21.1466,-10.52054 58.374,-21.05716 82.0132,-21.1696 0,0 17.6888,0 17.6888,0 16.2421,0.19275 36.7291,6.2481 51.4594,12.96196 15.0037,6.84239 24.443,12.17495 36.713,23.53071 23.7034,21.89239 41.1835,50.96443 49.0631,82.36548 13.5404,54.0644 -2.4925,123.05031 -30.4575,170.25626 -14.135,23.85195 -29.1224,44.57181 -49.4007,63.70154 0,0 -22.4492,19.01731 -22.4492,19.01731 -3.6665,2.92326 -8.2817,5.68592 -9.6967,10.47237 -1.0292,3.43724 5.0655,26.69489 6.2553,32.09169 3.9561,18.06967 9.938,51.109 10.3242,69.06623 0,0 -16.0809,-11.24334 -16.0809,-11.24334 0,0 1.608,28.91144 1.608,28.91144 0,0 0,36.9424 0,36.9424 0,0 -5.3067,-1.59014 -5.3067,-1.59014 0,0 -12.3824,-25.71512 -12.3824,-25.71512 0,28.65446 2.4282,57.93533 -8.0406,85.12813 0,0 -6.4324,-1.60619 -6.4324,-1.60619 0,0 -1.6081,-11.24334 -1.6081,-11.24334 -5.7408,6.1999 -6.0948,15.33912 -10.0186,24.09287 -11.1119,24.7514 -16.7563,47.09368 -38.2243,65.85398 0,0 -1.6083,-20.8806 -1.6083,-20.8806 -8.8606,10.9061 -11.5622,20.206 -17.8819,32.124 -7.1399,13.4598 -19.9568,32.4291 -30.4254,43.3671 -7.317,7.6455 -14.7462,17.5076 -25.6651,19.2744 0,0 4.824,-17.6681 4.824,-17.6681 -7.3167,6.5372 -11.9481,14.9214 -18.1069,22.4867 -12.0126,14.7768 -29.7501,33.9066 -46.217,43.3671 0,0 9.6487,-19.2743 9.6487,-19.2743 -7.5741,3.7265 -16.1133,12.1267 -22.6582,17.8127 0,0 -41.3445,34.4207 -41.3445,34.4207 -7.1719,5.1397 -18.5413,15.1465 -27.6593,13.6206 0,0 6.4324,-6.4251 6.4324,-6.4251 -9.7451,3.2286 -39.51114,26.6795 -51.45929,34.3088 0,0 -53.06736,27.5302 -53.06736,27.5302 -11.14414,6.2161 -29.97501,19.7885 -40.0578,27.8996 0,0 -19.42588,17.4594 -19.42588,17.4594 0,0 -23.68733,18.5514 -23.68733,18.5514 -8.61942,7.0673 -17.28711,14.7288 -27.78799,18.8086 4.92078,-11.0024 11.514,-21.3142 19.29722,-30.5177 -21.3556,12.5765 -38.91607,36.0429 -53.56586,55.5421 -5.41933,7.228 -8.78026,15.5639 -15.58253,21.5551 -18.50924,-32.429 -16.9333,-30.5497 -43.3544,-57.8229 -7.55811,-7.7899 -11.86781,-12.8495 -20.96964,-19.2743 6.5932,8.2559 13.92615,16.7686 16.08101,27.3053 -12.04469,-3.9994 -30.03935,-20.8484 -39.75226,-29.7788 -15.93631,-14.6805 -32.82137,-28.285 -50.30145,-41.0863 0,0 -51.45925,-32.6381 -51.45925,-32.6381 0,0 -30.56999,-19.8045 -30.56999,-19.8045 0,0 -35.36218,-19.7724 -35.36218,-19.7724 0,0 -45.01075,-33.8104 -45.01075,-33.8104 0,0 -22.52949,-20.6716 -22.52949,-20.6716 0,0 8.04049,19.2741 8.04049,19.2741 -12.33413,-5.2681 -21.83801,-16.7203 -30.55395,-26.6304 0,0 -22.24003,-23.1613 -22.24003,-23.1613 -6.56104,-7.3564 -10.32401,-14.1506 -17.96249,-20.8806 0,0 6.43241,20.8806 6.43241,20.8806 -24.05718,-12.3999 -45.50927,-42.0019 -60.27164,-64.2477 -6.12688,-9.2036 -12.6397,-27.3053 -21.74153,-32.124 0,0 -1.60811,16.062 -1.60811,16.062 -5.99822,-3.8388 -10.5813,-13.0262 -14.08697,-19.2744 -13.68494,-24.36593 -14.79453,-41.66461 -24.50744,-62.64146 0,0 -6.43243,11.24333 -6.43243,11.24333 -13.57239,-24.76746 -14.47291,-59.10783 -14.47291,-86.73432 -9.48781,9.5729 -7.18823,20.52712 -19.29723,27.30526 0,0 -1.6081,-27.30526 -1.6081,-27.30526 0,0 1.6081,-35.3362 1.6081,-35.3362 0,0 -11.25671,9.63715 -11.25671,9.63715 z M 707.71643,435.85512 c 12.10903,3.61393 45.12334,13.33139 56.28357,12.70498 0,0 25.72963,-3.67817 25.72963,-3.67817 8.47469,-1.89531 6.25551,-3.56576 17.68912,-4.20823 -0.65933,11.91795 -4.18108,15.03394 -7.33296,25.69906 -2.46039,8.32007 -5.80524,31.60984 -5.46752,40.15478 0,0 4.75997,57.82288 4.75997,57.82288 0,0 2.94283,32.12381 2.94283,32.12381 4.29362,42.91744 6.91484,51.99241 18.20371,93.1591 7.13998,26.03636 19.9887,55.8312 31.56703,80.30955 10.69388,22.61519 27.40204,61.88654 27.69152,86.73433 0.3216,28.25289 1.1739,57.5177 -22.57776,77.96452 -8.44253,7.25998 -17.41577,12.89772 -27.2734,17.97328 -4.34187,2.21654 -14.11913,6.24808 -17.1906,9.25166 -6.94701,6.82631 -0.12865,14.79301 -10.5009,26.37361 -9.06972,10.10299 -24.00897,14.98582 -30.20016,27.45002 0,0 25.72961,3.0196 25.72961,3.0196 0,0 14.47293,0 14.47293,0 27.48244,2.2165 56.2514,3.9673 83.62128,0 15.4217,-2.6181 30.45744,-7.2439 45.02687,-12.7532 7.70275,-2.9233 9.03749,-4.3047 17.68907,-6.32847 -12.109,25.74727 -55.5277,42.88547 -82.01316,48.94077 0,0 -11.2567,1.6706 -11.2567,1.6706 -49.69033,10.1993 -89.5552,11.0024 -139.90483,10.4241 0,0 -16.08105,-1.6704 -16.08105,-1.6704 0,0 -16.08099,0 -16.08099,0 0,0 -45.02685,-8.8182 -45.02685,-8.8182 -30.65041,-7.6614 -64.56529,-20.7518 -83.62128,-47.3345 0,0 45.02686,12.8497 45.02686,12.8497 30.26445,6.1195 64.19539,6.4086 94.87798,3.4854 14.11913,-1.3492 28.06138,-1.1243 41.81063,-5.0916 -11.75522,-10.6813 -28.36692,-17.49163 -38.22457,-27.78727 -8.60336,-8.97861 -3.20011,-16.83287 -11.85169,-24.2053 0,0 -23.8964,-15.06606 -23.8964,-15.06606 -16.30616,-11.75732 -26.01908,-26.05243 -31.47057,-45.3749 -4.40619,-15.61218 -4.26147,-30.67826 -2.55687,-46.57957 7.10783,-66.39993 37.03459,-94.7492 52.63316,-149.37577 7.39728,-25.84361 15.43779,-52.08878 19.55452,-78.70335 0,0 5.32282,-48.18574 5.32282,-48.18574 0,0 0,-14.45572 0,-14.45572 0,0 2.25137,-20.88049 2.25137,-20.88049 1.55983,-10.00657 3.98805,-18.56758 4.11672,-28.91144 0.20902,-17.73235 0.72363,-29.07206 -4.00417,-46.57954 -2.94285,-10.87391 -9.27876,-20.84836 -10.46877,-32.12383 z M 355.5422,585.2309 c 5.45146,-19.96496 28.78504,-49.6313 43.41874,-64.24765 53.40506,-53.32555 127.23301,-73.61173 199.40459,-49.79192 25.26329,8.33613 48.77373,22.30999 65.46581,43.36716 5.01728,6.34446 10.05064,15.24276 13.71713,22.48667 28.65637,56.44156 14.16736,116.14368 -12.06077,170.25627 -15.50209,31.99534 -38.77133,69.00197 -64.77431,93.31972 -5.03338,4.70613 -18.76655,17.97326 -23.70343,20.63953 -5.40323,2.90722 -20.39074,5.68593 -26.88746,7.00301 0,0 -12.86483,3.7103 -12.86483,3.7103 0,0 -35.37824,2.21655 -35.37824,2.21655 -12.52711,-0.14456 -38.2889,-1.30102 -45.02684,-12.84953 0,0 20.90532,-8.03096 20.90532,-8.03096 -18.55751,-3.37301 -54.33774,-6.31234 -64.32406,-24.09287 0,0 16.08103,-1.6062 16.08103,-1.6062 -10.61348,-2.12017 -20.10127,-8.62524 -28.94584,-14.64845 -13.34724,-9.10711 -27.12866,-18.02147 -33.77014,-33.53727 0,0 22.51344,4.81857 22.51344,4.81857 -9.21443,-14.72878 -15.72724,-18.90487 -27.82016,-29.98759 -3.81121,-3.50151 -11.64265,-9.76563 -12.39846,-14.98576 -0.70757,-4.88283 5.38713,-11.75732 8.0566,-20.88049 0,0 -16.08104,0 -16.08104,0 0.32161,-14.29511 8.31388,-25.24932 16.08104,-36.9424 -17.73741,2.79478 -17.94642,9.02679 -30.55396,16.06191 0,0 3.21622,3.21239 3.21622,3.21239 0,0 -11.25674,4.81857 -11.25674,4.81857 0,0 12.49498,-22.48668 12.49498,-22.48668 0,0 17.93033,-32.12382 17.93033,-32.12382 0,0 17.81775,-27.30526 17.81775,-27.30526 0,0 -11.2567,1.6062 -11.2567,1.6062 z m 710.781,237.7163 c -22.4812,10.37598 -35.6355,9.91019 -59.4997,9.63714 -11.43374,-0.14456 -18.38077,-2.77871 -28.946,-4.33671 -12.63962,-1.86318 -31.1489,-5.28438 -41.81064,-12.62466 -11.04764,-7.5973 -39.60753,-42.90138 -48.83803,-55.31723 -15.75939,-21.18566 -19.02385,-28.8472 -30.63434,-51.39812 -5.6766,-11.0024 -13.36333,-23.77163 -17.49613,-35.33621 -16.17751,-45.21428 -15.11618,-94.89378 6.52886,-138.13243 6.27162,-12.5283 16.12927,-27.06433 26.17991,-36.79785 12.15725,-11.77338 25.1507,-17.6199 40.13822,-24.59078 17.57656,-8.17551 43.35441,-12.27131 62.716,-12.49617 45.13945,-0.51396 75.87035,5.57349 114.17535,31.0798 24.218,16.14221 45.4774,38.16311 61.9122,62.0793 5.8048,8.43249 13.8131,19.27429 16.8849,28.91142 0,0 -11.2568,0 -11.2568,0 0,0 27.3377,43.36718 27.3377,43.36718 0,0 11.2567,22.48668 11.2567,22.48668 0,0 -25.7297,-6.42478 -25.7297,-6.42478 9.8094,12.67284 17.7374,19.77221 19.2972,36.94239 -9.3752,-4.16003 -11.9965,-6.08745 -20.9051,0 0,0 19.297,17.66812 19.297,17.66812 0,0 0,3.21238 0,3.21238 -9.7129,6.93873 -32.5961,30.30883 -40.2025,40.15478 0,0 19.2972,-1.60619 19.2972,-1.60619 -4.4224,9.33196 -10.0989,12.91377 -17.6891,19.4831 -25.4403,22.02087 -20.1494,16.92925 -48.243,31.91501 0,0 9.6487,1.60619 9.6487,1.60619 -2.8947,9.17136 -7.7994,9.07498 -16.0811,12.09462 -14.0547,5.12376 -26.8714,7.17968 -41.8106,7.17968 0,0 14.4728,11.24334 14.4728,11.24334 z M 871.7428,711.86302 c 4.75999,0.0321 11.85171,-1.33315 16.08101,0 6.99526,1.558 28.17396,18.37482 36.98634,23.62706 18.42886,10.97029 39.47894,18.1339 61.10789,18.3909 22.41696,0.25698 35.65186,-0.97978 56.28376,-10.88998 30.9237,-14.85727 44.7372,-40.5724 56.589,-71.02577 2.1548,-5.52531 9.8415,-21.26598 9.327,-25.69907 -0.804,-6.98693 -13.8297,-28.50989 -17.9947,-35.3362 -13.3311,-21.81207 -33.8344,-41.32729 -57.5699,-51.39813 -12.093,-5.12374 -19.5225,-5.70196 -32.1623,-6.5693 -34.09167,-2.32899 -58.69568,4.69007 -84.07152,28.52594 -13.62062,12.78529 -25.02206,29.61816 -31.61526,47.10958 -7.1239,18.90489 -12.94524,63.10727 -12.96132,83.26497 z m -218.70181,5.07556 c 0,-19.51523 -6.81835,-66.48025 -12.41453,-85.12814 -5.32285,-17.71628 -13.73321,-34.17975 -26.50153,-47.70387 -15.88803,-16.83288 -43.82076,-30.72644 -67.21864,-30.99949 0,0 -20.90532,0 -20.90532,0 -8.92496,0.11243 -24.04112,3.59786 -32.16203,7.16361 -23.52652,10.376 -39.62363,28.0441 -53.59803,49.05307 0,0 -15.32521,25.69907 -15.32521,25.69907 -1.96189,3.53362 -5.46754,8.86619 -5.80526,12.84953 -0.33769,4.14397 6.80227,16.97744 8.87675,22.48667 11.24061,29.9876 25.19894,54.49807 54.59503,70.38329 17.56047,9.4926 38.06378,13.36352 57.89166,13.13866 21.74155,-0.257 39.20551,-6.00716 57.89165,-16.84895 8.2174,-4.75433 29.38004,-22.19756 35.37826,-23.49857 4.32576,-0.93159 14.31209,2.39321 19.2972,3.40512 z M 609.62227,676.7838 c -2.50864,10.48843 -7.6385,16.06191 -15.06793,23.49858 -17.99466,17.94116 -29.79814,19.9007 -54.08046,19.86858 -29.4765,-0.0482 -51.87735,-14.60029 -63.39137,-41.76097 -5.96605,-14.07025 -7.68672,-25.49025 -2.39607,-40.15478 15.95238,-44.29875 71.89821,-59.55758 109.20618,-32.23626 17.78559,13.01015 20.72843,28.41353 31.74391,45.08578 8.58729,12.97804 27.67544,35.28803 24.53965,51.39812 -15.5986,-8.01488 -18.60574,-15.29093 -30.55391,-25.69905 z m 273.37725,22.48668 c 1.28648,-17.82873 17.1906,-25.57056 26.43719,-38.82164 3.93985,-5.6538 6.09471,-14.05418 9.37525,-20.60744 5.61227,-11.21121 15.67898,-24.81566 25.76172,-32.34869 32.30684,-24.125 73.63512,-17.92509 98.76982,13.09046 6.4645,7.96672 11.1282,15.46763 12.8648,25.68299 5.2423,30.72644 -17.1102,65.46835 -47.7767,73.0014 -4.1813,1.02794 -8.58747,0.8834 -12.86494,0.8834 0,0 -12.86488,0 -12.86488,0 -26.88747,-0.3373 -53.32462,-22.08513 -62.71592,-46.57955 -17.17453,8.28795 -11.75523,24.31775 -36.98634,25.69907 z M 538.86577,624.59865 c -24.45922,4.24034 -22.20788,34.37249 3.21622,32.81448 21.90233,-1.33314 21.29127,-30.99949 -3.21622,-32.81448 z m 443.83601,-0.17668 c -24.60394,8.04702 -13.25076,38.11491 8.04054,32.39686 19.52238,-5.25223 15.42178,-34.85433 -8.04054,-32.39686 z m -115.78327,257.9543 c -0.72366,-14.72877 -15.16441,-42.06615 -32.16204,-41.47185 -10.98334,0.38547 -34.91187,16.88105 -42.71117,24.54259 -12.38239,12.14281 -13.37941,26.34154 -13.57238,42.62833 -0.11256,8.81797 -3.29661,14.85726 1.6081,22.48668 3.81121,-8.07916 6.57713,-15.85312 13.02563,-22.32607 13.52413,-13.5402 54.57896,-24.97628 73.81186,-25.85968 z m -128.64813,48.18575 c 0,-14.53606 -1.49554,-43.72055 -8.49077,-56.21671 -5.96608,-10.68117 -23.55871,-22.88823 -34.92797,-27.41768 -18.3806,-7.34029 -30.55392,-0.1285 -40.31512,16.17435 -2.34783,3.9191 -6.51281,12.62465 -4.85646,17.2023 0.49853,1.38133 1.17393,2.08804 2.46039,2.76265 0,0 25.02206,4.14396 25.02206,4.14396 13.44373,3.06783 34.63851,12.09462 44.54443,21.6033 7.42941,7.14753 8.9571,16.9453 16.56344,21.74783 z m 3.21619,-162.22533"
     style="fill:#000000;fill-opacity:1;stroke:none" />
  <path
     id="white"
     fill="none"
     stroke="black"
     stroke-width="1.60714"
     d="m 217.2455,525.80184 c 9.03751,-18.48727 22.65813,-31.09586 41.81063,-38.6771 13.34723,-5.2683 28.91365,-6.72993 40.20253,-16.2707 0,0 35.37823,-36.46055 35.37823,-36.46055 21.01789,-19.54735 51.04114,-40.66876 77.18889,-52.65095 70.70821,-32.429 152.36762,-34.90253 223.5261,-2.47353 34.87972,15.88522 63.10191,35.73774 78.07333,72.64803 9.39132,23.17734 9.03752,39.94597 8.76416,64.24765 0,0 -6.43241,62.64145 -6.43241,62.64145 -0.45027,38.24341 -14.90709,101.67189 -27.46637,138.13244 0,0 -36.18229,83.52193 -36.18229,83.52193 -8.52294,22.56699 -13.63669,46.59561 -15.00358,70.67242 -1.36688,24.10893 11.03158,52.76339 28.80109,68.79317 0,0 30.32881,21.49083 30.32881,21.49083 8.63549,8.60919 3.76295,15.90129 17.94639,28.06012 11.06375,9.49258 22.43303,12.22315 32.12987,24.60705 -22.56166,5.975 -49.09532,6.4248 -72.36456,6.4248 -24.89341,0 -35.92498,1.0601 -61.10786,-3.63 0,0 -45.02684,-12.4321 -45.02684,-12.4321 8.84455,8.8342 15.10006,15.8051 25.72964,22.7117 29.89459,19.3868 81.86844,31.4974 117.39141,31.8991 0,0 20.90531,1.6061 20.90531,1.6061 0,0 38.59444,0 38.59444,0 0,0 27.33771,-1.6061 27.33771,-1.6061 18.99169,-0.033 21.05007,-2.1524 38.59444,-4.6098 33.01433,-4.6259 53.06737,-7.9347 83.62129,-23.0972 6.06254,-3.0035 12.30198,-5.9269 17.68911,-10.0868 7.39731,-5.6859 13.41155,-12.8657 19.29717,-20.0294 0,0 -57.89161,16.9616 -57.89161,16.9616 -32.62838,5.2523 -93.63975,1.8952 -127.04002,-2.5057 7.94402,-15.82112 17.88209,-17.07396 28.76894,-28.92763 11.65873,-12.70501 4.95295,-18.58368 13.41156,-26.66281 0,0 36.61647,-22.34213 36.61647,-22.34213 27.20907,-21.41052 29.31571,-45.7122 28.94585,-77.86814 -0.24124,-20.09346 -9.31092,-42.69257 -17.01373,-61.03526 0,0 -36.55214,-88.34051 -36.55214,-88.34051 -16.04885,-45.06973 -20.95357,-84.7266 -25.5045,-131.70768 0,0 -3.21618,-38.54858 -3.21618,-38.54858 0,0 -2.94284,-33.73002 -2.94284,-33.73002 -0.46635,-40.95788 15.55034,-79.24949 48.24305,-104.93247 15.38952,-12.09462 29.09055,-17.42719 46.63495,-24.9281 69.87202,-29.85909 151.78896,-24.65502 220.31026,6.68177 26.0189,11.90187 59.387,34.96677 80.3889,54.38563 0,0 30.8435,32.70205 30.8435,32.70205 11.7068,10.50449 21.5484,10.4563 35.1047,15.93342 18.9595,7.67759 39.2377,24.02862 45.0267,44.25056 0,0 -33.7699,-17.66809 -33.7699,-17.66809 0,0 4.8243,8.03094 4.8243,8.03094 0,0 -19.2973,4.81859 -19.2973,4.81859 6.9469,14.71269 15.7111,28.38139 16.0809,44.97333 0,0 -25.7295,-24.09286 -25.7295,-24.09286 8.3941,24.2053 18.1073,49.59917 19.2972,75.49098 0,0 -24.1215,-24.09286 -24.1215,-24.09286 6.6253,16.62409 20.2621,55.55815 22.5135,72.2786 0,0 -25.7297,-25.69906 -25.7297,-25.69906 0,0 10.8064,43.36717 10.8064,43.36717 0,0 4.1167,36.94239 4.1167,36.94239 0,0 2.766,30.51763 2.766,30.51763 0,0 -17.6891,-24.09286 -17.6891,-24.09286 4.3419,17.61992 4.9045,41.21486 4.8243,59.42907 -0.033,7.00299 0.049,11.29153 -3.2163,17.66811 0,0 -16.0809,-28.91145 -16.0809,-28.91145 0,27.61042 2.187,56.97161 -6.4324,83.52195 0,0 -3.2163,0 -3.2163,0 0,0 -8.0404,-32.12383 -8.0404,-32.12383 -5.8214,23.59495 -6.3361,61.6938 -27.3378,77.09719 0,0 -4.8244,-28.91145 -4.8244,-28.91145 -3.8593,24.97626 -23.9766,61.38863 -48.243,70.6724 0,0 6.4324,-25.69906 6.4324,-25.69906 -6.2394,11.62883 -17.5121,20.73594 -27.3377,29.36119 -12.913,11.35577 -15.872,15.80491 -32.162,23.64313 0,0 3.2161,-12.84954 3.2161,-12.84954 -19.5544,11.11485 -32.4674,16.94532 -54.6755,21.20176 -9.5843,1.83101 -27.94882,0.77093 -35.04056,6.79415 -5.99828,5.07559 -12.88089,20.80038 -16.91722,28.22098 -7.86363,14.4878 -18.76662,31.4975 -30.11977,43.3671 -68.23175,71.3792 -159.18597,102.1056 -254.01572,67.3799 -42.74334,-15.6605 -84.93992,-48.0252 -113.09779,-83.4417 -6.73794,-8.4647 -19.02383,-25.9401 -23.94462,-35.3363 -3.40918,-6.5212 -7.25253,-18.8247 -12.84875,-22.90447 -5.16198,-3.77456 -14.32816,-2.73045 -20.5676,-2.7947 -34.33297,-0.40158 -73.12039,-29.87519 -96.48609,-53.00435 0,0 6.4324,22.48668 6.4324,22.48668 -31.8565,-17.89298 -44.46401,-47.04533 -67.54026,-73.88479 0,0 4.8243,25.69907 4.8243,25.69907 -11.28887,-6.90664 -14.08696,-14.31118 -19.68316,-25.69907 0,0 -18.12331,-49.79193 -18.12331,-49.79193 -2.91067,-10.74542 -2.39607,-15.9816 -7.22037,-27.30525 0,0 -4.82431,43.36716 -4.82431,43.36716 -14.79452,-23.91619 -14.47291,-60.90676 -14.47291,-88.34051 0,-11.14698 0.98094,-24.68715 -1.60811,-35.33621 0,0 -14.4729,32.12382 -14.4729,32.12382 0,0 -3.21621,0 -3.21621,0 -5.80524,-12.5283 -2.36391,-19.4349 -1.65634,-32.12382 2.21918,-40.21903 5.25849,-46.12981 17.73737,-83.52194 0,0 -36.98635,36.9424 -36.98635,36.9424 0,0 27.33772,-80.30956 27.33772,-80.30956 -16.01669,12.59254 -13.08994,27.43374 -28.94582,32.12383 4.27756,-22.69548 17.97857,-61.9026 25.72963,-85.12813 -8.137,8.12732 -18.83087,20.92866 -28.94583,25.69904 1.41512,-9.92624 3.44132,-15.35517 8.41036,-24.09286 2.38,-4.19216 7.44554,-11.09878 6.36809,-16.02977 -1.0131,-4.65796 -6.28768,-7.99885 -9.95415,-10.52057 -2.29959,-1.59012 -5.32281,-3.82273 -8.04052,-4.4652 -8.2013,-1.97562 -14.45681,7.4206 -28.9458,10.13507 z m 307.14737,417.60969 c 0,0 7.01133,-38.54858 7.01133,-38.54858 7.57416,-23.4504 30.73082,-60.39278 45.6701,-80.30956 0,0 39.60752,-40.15478 39.60752,-40.15478 35.82851,-43.43141 75.8863,-117.55714 76.56172,-175.07485 0.24122,-20.63954 -2.04229,-38.30765 -9.1501,-57.82287 -5.53187,-15.16244 -16.74034,-34.98285 -27.98097,-46.51529 -10.09888,-10.35995 -22.36868,-18.13391 -35.2335,-24.55867 -47.5194,-23.72345 -105.23417,-25.18507 -154.37774,-5.30044 -26.75882,10.82575 -48.88629,27.19283 -69.14837,47.46296 -15.74333,15.74067 -35.63553,40.98999 -41.81065,62.64145 0,0 11.25671,-1.6062 11.25671,-1.6062 0,0 -28.01314,44.97335 -28.01314,44.97335 0,0 -18.6218,35.33622 -18.6218,35.33622 0,0 17.68914,-1.60619 17.68914,-1.60619 -3.76298,11.2594 -6.83445,21.66752 -6.3681,33.73 0.99702,25.87575 10.70995,66.36783 21.33951,89.94672 6.54498,14.48784 15.59859,28.63838 24.5557,41.76097 11.38536,16.7044 15.79156,24.14105 31.22934,38.40403 15.90412,14.69665 26.00301,13.9578 41.81063,25.84361 0,0 -14.4729,6.42477 -14.4729,6.42477 10.08279,8.67344 33.36811,10.63298 46.63492,11.24333 0,0 -17.6891,17.6681 -17.6891,17.6681 0,0 43.41876,0 43.41876,0 -7.94403,2.50567 -13.00955,4.77039 -16.08103,12.68893 0,0 16.08103,0 16.08103,0 0,0 16.08099,3.37299 16.08099,3.37299 z M 1167.6338,583.6247 c -5.8535,-16.41527 -20.9859,-36.50871 -32.3713,-49.79192 -27.402,-31.96319 -64.2116,-58.67416 -105.9256,-68.00613 -19.4903,-4.35279 -39.62379,-4.49734 -59.49994,-4.27247 -28.89754,0.3373 -71.46399,13.3314 -93.26985,32.41295 -29.50865,25.82754 -48.17871,71.53974 -48.24303,110.53807 0,0 0,16.06191 0,16.06191 0.24121,19.48309 7.60632,48.21785 15.90411,65.85384 0,0 9.42348,17.66811 9.42348,17.66811 13.73318,27.22492 28.4634,51.75148 47.77669,75.49097 0,0 35.2335,38.56466 35.2335,38.56466 0,0 7.31685,11.0827 7.31685,11.0827 0,0 9.97025,11.45215 9.97025,11.45215 13.21864,16.57589 25.21498,35.65744 31.26145,56.15245 5.82137,19.70797 2.7017,30.80674 4.53493,40.07447 1.62419,8.22369 7.50972,6.68175 13.86166,4.89888 0,0 -3.2161,-8.03096 -3.2161,-8.03096 0,0 27.338,6.42476 27.338,6.42476 0,0 -9.6488,-14.45571 -9.6488,-14.45571 0,0 36.9864,6.42477 36.9864,6.42477 0,0 -17.689,-24.09286 -17.689,-24.09286 16.5474,3.00356 25.7456,5.4289 41.8106,-2.26474 6.4646,-3.09995 8.9249,-3.51756 11.2567,-10.5848 0,0 -8.0406,-6.42477 -8.0406,-6.42477 9.9865,-3.85485 23.7839,-8.7698 32.1621,-15.19457 8.8445,-6.77813 17.1103,-17.71629 23.9286,-26.56639 23.623,-30.64613 37.2275,-62.22385 46.6188,-99.58386 0,0 6.3199,-33.73001 6.3199,-33.73001 1.3187,-6.87452 3.7791,-13.86143 3.2484,-20.88049 0,0 -6.1429,-27.30525 -6.1429,-27.30525 0,0 14.4729,3.21237 14.4729,3.21237 2.6211,-11.61275 -5.4515,-18.56755 -11.3854,-27.57828 0,0 -8.6033,-15.78887 -8.6033,-15.78887 0,0 -26.6463,-41.76098 -26.6463,-41.76098 0,0 11.2568,0 11.2568,0 z m 70.7564,12.84953 c 0,0 -1.6082,0 -1.6082,0 0,0 1.6082,1.6062 1.6082,1.6062 0,0 0,-1.6062 0,-1.6062 z m -704.34871,26.4058 c 3.16796,-0.28911 4.67957,-0.77098 8.0405,0 23.59086,2.68233 20.06911,39.06256 -4.8243,35.86624 -17.60871,-2.24866 -23.38179,-26.87158 -3.2162,-35.86624 z m 445.44414,0 c 3.16796,-0.28911 4.6795,-0.77098 8.04054,0 23.81583,2.69839 19.37763,38.96619 -4.82439,35.86624 -17.60868,-2.24866 -23.38175,-26.87158 -3.21615,-35.86624 z m 255.68837,20.17375 c 0,0 -1.6082,0 -1.6082,0 0,0 1.6082,1.60619 1.6082,1.60619 0,0 0,-1.60619 0,-1.60619 z m -915.01002,20.88049 c 0,0 -1.6081,0 -1.6081,0 0,0 1.6081,1.60619 1.6081,1.60619 0,0 0,-1.60619 0,-1.60619 z M 778.44077,928.9558 c -1.99406,-11.90187 -0.48244,-8.73766 0,-19.27429 0.65931,-15.7728 -0.1769,-28.65446 10.99939,-41.48791 8.13702,-9.34802 34.15609,-28.02803 46.92441,-27.09646 17.84995,1.31708 28.38299,26.03637 30.55394,41.27913 -18.41276,1.49376 -55.14181,11.37183 -69.14838,23.01671 -12.84873,10.68117 -11.12805,18.31059 -19.32936,23.56282 z m -40.17038,1.60622 c -9.03754,-7.64549 -9.66469,-13.28321 -16.59561,-20.59138 -7.75105,-8.15947 -24.13762,-15.93341 -34.86366,-19.56341 -10.58129,-3.56576 -15.13222,-3.90306 -25.72962,-5.76624 -3.53782,-0.61035 -8.57117,-0.91552 -10.32401,-4.56158 -2.34782,-4.83463 1.28649,-12.75316 3.69865,-16.97743 7.57414,-13.26715 18.10721,-21.79602 33.9631,-18.18209 15.38953,3.5015 36.27877,18.23027 42.85591,32.6378 5.99821,13.13865 6.99524,38.40403 6.99524,53.00433 z m -170.45877,72.27858 c 0,0 -1.6081,0 -1.6081,0 0,0 1.6081,1.6062 1.6081,1.6062 0,0 0,-1.6062 0,-1.6062 z"
     style="fill:#ffffff;fill-opacity:1;stroke:none" />
  <path
     id="eyes"
     fill="none"
     stroke="black"
     stroke-width="1.60714"
     d="m 653.041,716.93858 c -4.96904,-0.99585 -12.92914,-3.45331 -17.68912,-2.71447 -8.13699,1.26889 -28.25434,17.94117 -36.98633,23.09703 -17.09412,10.08688 -36.32701,16.31891 -56.28356,16.55984 -20.18166,0.22486 -41.53726,-2.93933 -59.49977,-12.68892 -29.20311,-15.86917 -41.66589,-38.09886 -53.71057,-67.62065 -3.11972,-7.66153 -9.61644,-19.40278 -8.63551,-27.30525 0.96486,-7.93458 13.00953,-26.14879 17.64087,-33.73 11.28888,-18.45514 27.14477,-37.16726 46.31333,-47.68782 22.14356,-12.14281 38.48187,-12.01433 62.71597,-11.74126 23.49436,0.27305 51.36275,13.68475 67.39553,30.5337 12.49493,13.13865 21.17869,30.91917 26.32462,48.16966 5.91781,19.82039 12.39847,64.4404 12.41454,85.12814 z M 871.7428,712.377 c 0,-23.33796 5.48364,-61.96686 12.86482,-83.77895 5.70876,-16.81681 16.33831,-32.50929 28.94583,-44.95727 29.07447,-28.65446 49.93152,-30.98344 88.44555,-30.5337 9.1985,0.11243 20.3749,2.21654 28.946,5.55743 23.8642,9.3159 42.1805,26.45396 56.2835,47.44687 5.2906,7.87034 19.7959,31.38498 20.4229,40.15478 0.4342,6.28022 -4.5668,16.57589 -7.1078,22.48667 -6.368,14.79302 -10.501,26.2773 -19.5222,40.15479 -9.5362,14.64846 -21.6129,25.52238 -37.2115,33.32845 -21.7738,10.90605 -35.7322,11.91794 -59.49999,11.64491 -21.30736,-0.257 -42.98455,-8.28795 -61.10785,-19.04942 -8.66766,-5.15589 -27.1126,-19.74011 -35.10485,-22.45456 -4.00418,-0.97979 -11.83563,-0.28912 -16.35441,0 z m -231.56662,-9.89415 c -0.19296,-21.37839 -11.53006,-32.95904 -22.93152,-49.79191 -17.57655,-25.98818 -20.40681,-47.97694 -55.86544,-57.56591 -33.19122,-8.97859 -68.93933,5.188 -83.97505,36.68541 -3.74689,7.87036 -6.46458,16.89713 -5.93391,25.69906 1.28647,20.76805 15.50209,43.97752 33.6254,54.04834 17.97858,9.99051 50.17276,11.88582 69.14837,3.85486 15.35736,-6.50508 30.76298,-22.50273 35.37824,-38.6289 10.03454,10.02263 17.64088,19.37066 30.55391,25.69905 z m 279.80968,-28.91144 c 7.86362,18.21422 19.81181,33.11967 38.59441,41.02213 15.06793,6.32839 24.41097,5.7341 40.20246,5.55742 32.13017,-0.38548 57.16827,-31.93108 57.87587,-62.64146 0.8522,-38.00248 -34.9601,-64.40826 -70.74056,-64.24765 -26.58195,0.11244 -48.21091,14.63242 -61.96017,36.94241 0,0 -14.58547,28.91144 -14.58547,28.91144 -10.53308,15.72462 -23.22099,20.04526 -26.37288,40.15478 21.45208,-1.94349 21.82194,-14.13449 36.98634,-25.69907 z"
     style="fill:#ffb800;fill-opacity:1;stroke:none" />
</svg>
